<svg width="114" height="42" viewBox="0 0 114 42" fill="none" xmlns="http://www.w3.org/2000/svg">
<path d="M18.8833 39.5567L8.50796 29.1813L23.7355 13.9552L9.80351 0L1.947 7.85788C-0.146349 9.95122 0.00229882 12.0146 0.00229882 14.9466V36.6451C-0.0263398 38.4398 1.42468 39.5567 2.71478 39.5567C3.90669 39.5567 18.8847 39.5567 18.8847 39.5567M1.1042 37.2847C1.1042 37.2165 1.09056 36.6547 1.46287 36.251C1.99882 35.67 3.64894 34.039 3.64894 34.039L8.12202 29.5673L17.5318 38.9962H9.61941C7.33514 38.9962 5.11633 38.9962 3.8426 38.9962C3.31892 38.9962 2.9548 38.9962 2.81161 38.9962C1.67152 38.9962 1.08102 38.0088 1.1042 37.2847Z" fill="white"/>
<path d="M30.1627 39.5882C28.4771 39.5882 27.2334 38.3935 27.2334 36.6098C27.2334 34.826 28.5262 33.6313 30.2036 33.6313C31.3983 33.6313 32.2656 34.2614 32.6747 35.0305L31.7665 35.5788C31.4146 34.9896 30.9401 34.6296 30.1709 34.6296C29.1645 34.6296 28.3298 35.3906 28.3298 36.6098C28.3298 37.8289 29.1481 38.5899 30.1709 38.5899C30.891 38.5899 31.4228 38.2708 31.8401 37.6735L32.7484 38.189C32.0938 39.1381 31.4146 39.5882 30.1627 39.5882Z" fill="white"/>
<path d="M35.4242 39.5879C34.3114 39.5879 33.2068 38.8678 33.2068 37.4441C33.2068 36.0204 34.3114 35.3003 35.4242 35.3003C36.537 35.3003 37.6417 36.0204 37.6417 37.4441C37.6417 38.8678 36.537 39.5879 35.4242 39.5879ZM36.5943 37.4441C36.5943 36.6995 36.0297 36.2658 35.4242 36.2658C34.8187 36.2658 34.2541 36.6995 34.2541 37.4441C34.2541 38.1887 34.8187 38.6224 35.4242 38.6224C36.0297 38.6224 36.5943 38.1887 36.5943 37.4441Z" fill="white"/>
<path d="M37.9854 39.4735V38.5653C37.9854 38.5653 38.0917 38.6144 38.2717 38.6144C38.5254 38.6144 38.6481 38.4425 38.689 37.7143L38.82 35.415H42.0111V39.4735H40.9801V36.3478H39.72L39.6464 37.7552C39.5891 38.9253 39.2618 39.5308 38.3454 39.5308C38.1572 39.5308 37.9854 39.4735 37.9854 39.4735Z" fill="white"/>
<path d="M45.4804 38.8269C45.194 39.3342 44.703 39.5879 44.1221 39.5879C43.3202 39.5879 42.7556 39.0888 42.7556 38.3196C42.7556 37.4932 43.3775 37.1168 44.2039 37.0022L45.4231 36.8386V36.634C45.4231 36.2413 45.1776 36.0204 44.6621 36.0204C44.2121 36.0204 43.9503 36.2249 43.9503 36.4786C43.9503 36.5113 43.9503 36.5604 43.9584 36.5931L42.9847 36.6995C42.9684 36.6259 42.9684 36.544 42.9684 36.4868C42.9684 35.8567 43.5984 35.3003 44.6621 35.3003C45.7995 35.3003 46.4541 35.7831 46.4541 36.7731V38.4669C46.4541 38.9088 46.495 39.1951 46.585 39.4733H45.5622C45.5213 39.3097 45.4804 39.0888 45.4804 38.8269ZM45.4231 37.6241V37.5505L44.4412 37.6896C43.9994 37.755 43.7621 37.9187 43.7621 38.2623C43.7621 38.606 44.0239 38.7533 44.343 38.7533C44.9403 38.7533 45.4231 38.4096 45.4231 37.6241Z" fill="white"/>
<path d="M48.3772 35.4163V35.9973C48.6472 35.6045 49.1709 35.3018 49.7846 35.3018C50.7992 35.3018 51.6502 36.0955 51.6502 37.4456C51.6502 38.7957 50.7746 39.5894 49.6946 39.5894C49.1218 39.5894 48.6717 39.3439 48.3772 38.9757V41.144H47.3462V35.4163H48.3772ZM48.3117 37.4456C48.3117 38.1083 48.7945 38.6238 49.4573 38.6238C50.12 38.6238 50.6028 38.1083 50.6028 37.4456C50.6028 36.7828 50.12 36.2673 49.4573 36.2673C48.7945 36.2673 48.3117 36.7828 48.3117 37.4456Z" fill="white"/>
<path d="M95.292 22.0544H92.9545L90.1643 24.8774V22.0544H88.1882V29.8319H90.1643V26.6175L93.0022 29.8319H95.3861L91.7162 25.6615L95.292 22.0544Z" fill="white"/>
<path d="M32.6624 18.8564H27.6765V29.8318H29.7467V26.0065H32.6637C35.1416 26.0065 36.7713 24.7369 36.7713 22.4322C36.7713 20.1275 35.1403 18.8578 32.6637 18.8578M32.601 24.1573H29.7467V20.7084H32.601C34.0438 20.7084 34.7025 21.3985 34.7025 22.4335C34.7025 23.4686 34.0438 24.1587 32.601 24.1587" fill="white"/>
<path d="M41.4418 21.8348C39.3089 21.8348 37.1924 23.2149 37.1924 25.9424C37.1924 28.6699 39.3089 30.05 41.4418 30.05C43.5747 30.05 45.6912 28.6699 45.6912 25.9424C45.6912 23.2149 43.5747 21.8348 41.4418 21.8348ZM41.4418 28.2008C40.2813 28.2008 39.1998 27.3703 39.1998 25.9424C39.1998 24.5146 40.2813 23.6854 41.4418 23.6854C42.6023 23.6854 43.6838 24.516 43.6838 25.9424C43.6838 27.3689 42.6023 28.2008 41.4418 28.2008Z" fill="white"/>
<path d="M50.7342 28.2008C49.5423 28.2008 48.664 27.3389 48.664 25.9424C48.664 24.546 49.5736 23.6854 50.7342 23.6854C51.4392 23.6854 52.0516 24.0141 52.5371 24.7519L54.2308 23.7795C53.6662 22.5726 52.443 21.8348 50.7506 21.8348C48.5399 21.8348 46.658 23.4659 46.658 25.9424C46.658 28.419 48.4458 30.05 50.7506 30.05C52.413 30.05 53.5258 29.2972 54.3099 27.9649L52.6789 27.0716C52.2084 27.7303 51.7065 28.2008 50.7342 28.2008Z" fill="white"/>
<path d="M71.77 26.4607C71.6759 27.6526 71.4399 27.9185 71.0322 27.9185C70.754 27.9185 70.6231 27.8871 70.4321 27.8381L70.4417 29.8509C70.4417 29.8509 70.6872 29.9259 71.1413 29.9259C72.8187 29.9259 73.446 28.8445 73.6028 26.5398L73.791 23.8273H76.0167V29.8168H77.9927V22.0558H72.0973L71.7686 26.462L71.77 26.4607Z" fill="white"/>
<path d="M66.1666 21.8349C63.9082 21.8349 62.074 23.4809 62.074 25.9425C62.074 28.404 63.9082 30.05 66.0725 30.05C67.7812 30.05 68.864 29.4077 69.6468 28.074L68.0785 27.2898C67.593 27.9008 67.1539 28.3563 66.1025 28.3563C64.9419 28.3563 64.095 27.6035 63.9696 26.4116H69.9591V25.7215C69.9591 23.4482 68.3908 21.8335 66.1652 21.8335M64.0009 24.906C64.2832 24.0278 65.0674 23.3377 66.1025 23.3377C67.2003 23.3377 67.9367 23.9337 68.1249 24.906H64.0009Z" fill="white"/>
<path d="M83.1924 21.8349C80.9341 21.8349 79.0999 23.4809 79.0999 25.9425C79.0999 28.404 80.9341 30.05 83.0983 30.05C84.8071 30.05 85.8886 29.4077 86.6727 28.074L85.1044 27.2898C84.6189 27.9008 84.1798 28.3563 83.1284 28.3563C81.9678 28.3563 81.1209 27.6035 80.9955 26.4116H86.985V25.7215C86.985 23.4482 85.4167 21.8335 83.1911 21.8335M81.0268 24.906C81.3091 24.0278 82.0933 23.3377 83.1284 23.3377C84.2262 23.3377 84.9626 23.9337 85.1508 24.906H81.0268Z" fill="white"/>
<path d="M54.9233 23.7796H57.2444V29.8319H59.2191V23.7796H61.5402V22.0544H54.9233V23.7796Z" fill="white"/>
<path d="M99.308 21.8348C97.1751 21.8348 95.0586 23.2149 95.0586 25.9424C95.0586 28.6699 97.1751 30.05 99.308 30.05C101.441 30.05 103.557 28.6699 103.557 25.9424C103.557 23.2149 101.441 21.8348 99.308 21.8348ZM99.308 28.2008C98.1475 28.2008 97.066 27.3703 97.066 25.9424C97.066 24.5146 98.1475 23.6854 99.308 23.6854C100.469 23.6854 101.55 24.516 101.55 25.9424C101.55 27.3689 100.469 28.2008 99.308 28.2008Z" fill="white"/>
<path d="M111.417 22.0531L109.273 27.4999L107.129 22.0531H104.546V29.8155H106.425V24.902L108.506 29.8155H110.041L112.122 24.902V29.8155H114V22.0531H111.417Z" fill="white"/>
</svg>
