<svg width="40" height="40" viewBox="0 0 40 40" fill="none" xmlns="http://www.w3.org/2000/svg">
<path d="M26.8833 39.5567L16.508 29.1813L31.7355 13.9552L17.8035 0L9.947 7.85788C7.85365 9.95122 8.0023 12.0146 8.0023 14.9466V36.6451C7.97366 38.4398 9.42468 39.5567 10.7148 39.5567C11.9067 39.5567 26.8847 39.5567 26.8847 39.5567M9.1042 37.2847C9.1042 37.2165 9.09056 36.6547 9.46287 36.251C9.99882 35.67 11.6489 34.039 11.6489 34.039L16.122 29.5673L25.5318 38.9962H17.6194C15.3351 38.9962 13.1163 38.9962 11.8426 38.9962C11.3189 38.9962 10.9548 38.9962 10.8116 38.9962C9.67152 38.9962 9.08102 38.0088 9.1042 37.2847Z" fill="white"/>
</svg>
